{
    "asset" : {
        "generator" : "Khronos glTF Blender I/O v1.7.5",
        "version" : "2.0"
    },
    "scene" : 0,
    "scenes" : [
        {
            "name" : "Scene",
            "nodes" : [
                0,
                1
            ]
        }
    ],
    "nodes" : [
        {
            "name" : "Camera",
            "rotation" : [
                0.483536034822464,
                0.33687159419059753,
                -0.20870360732078552,
                0.7804827094078064
            ],
            "translation" : [
                7.358891487121582,
                4.958309173583984,
                6.925790786743164
            ]
        },
        {
            "mesh" : 0,
            "name" : "Icosphere.000_mat.tree-laurel_0",
            "rotation" : [
                -0.7038537263870239,
                -0.16705746948719025,
                -0.12858456373214722,
                0.678341805934906
            ],
            "scale" : [
                0.761263906955719,
                0.761263906955719,
                0.7612639665603638
            ],
            "translation" : [
                -4.691715240478516,
                0.5146989822387695,
                -4.167783737182617
            ]
        }
    ],
    "materials" : [
        {
            "doubleSided" : true,
            "name" : "mat.tree-laurel",
            "occlusionTexture" : {
                "index" : 0
            },
            "pbrMetallicRoughness" : {
                "baseColorTexture" : {
                    "index" : 1
                },
                "metallicFactor" : 0,
                "roughnessFactor" : 0.8065930008888245
            }
        }
    ],
    "meshes" : [
        {
            "name" : "Icosphere.000_mat.tree-laurel_0",
            "primitives" : [
                {
                    "attributes" : {
                        "POSITION" : 0,
                        "NORMAL" : 1,
                        "TEXCOORD_0" : 2
                    },
                    "indices" : 3,
                    "material" : 0
                }
            ]
        }
    ],
    "textures" : [
        {
            "sampler" : 0,
            "source" : 0
        },
        {
            "sampler" : 1,
            "source" : 1
        }
    ],
    "images" : [
        {
            "bufferView" : 4,
            "mimeType" : "image/png",
            "name" : "mat.tree-laurel_metallicRoughness"
        },
        {
            "bufferView" : 5,
            "mimeType" : "image/jpeg",
            "name" : "mat.tree-laurel_baseColor"
        }
    ],
    "accessors" : [
        {
            "bufferView" : 0,
            "componentType" : 5126,
            "count" : 3382,
            "max" : [
                3.276761531829834,
                3.076763391494751,
                2.0955543518066406
            ],
            "min" : [
                -3.0736422538757324,
                -2.856313943862915,
                -4.616735935211182
            ],
            "type" : "VEC3"
        },
        {
            "bufferView" : 1,
            "componentType" : 5126,
            "count" : 3382,
            "type" : "VEC3"
        },
        {
            "bufferView" : 2,
            "componentType" : 5126,
            "count" : 3382,
            "type" : "VEC2"
        },
        {
            "bufferView" : 3,
            "componentType" : 5123,
            "count" : 3414,
            "type" : "SCALAR"
        }
    ],
    "bufferViews" : [
        {
            "buffer" : 0,
            "byteLength" : 40584,
            "byteOffset" : 0
        },
        {
            "buffer" : 0,
            "byteLength" : 40584,
            "byteOffset" : 40584
        },
        {
            "buffer" : 0,
            "byteLength" : 27056,
            "byteOffset" : 81168
        },
        {
            "buffer" : 0,
            "byteLength" : 6828,
            "byteOffset" : 108224
        },
        {
            "buffer" : 0,
            "byteLength" : 184030,
            "byteOffset" : 115052
        },
        {
            "buffer" : 0,
            "byteLength" : 759566,
            "byteOffset" : 299084
        }
    ],
    "samplers" : [
        {
            "magFilter" : 9728,
            "minFilter" : 9984
        },
        {
            "magFilter" : 9729,
            "minFilter" : 9987
        }
    ],
    "buffers" : [
        {
            "byteLength" : 1058652,
            "uri" : "data:application/octet-stream;base64,"
        }
    ]
}
